# xmcd
#
# Track frame offsets:
#	150
#	5635
#	12907
#	24275
#	33087
#	42707
#	54322
#	59282
#	67217
#	81092
#	90670
#	100147
#
# Disc length: 1433 seconds
#
# Revision: 0
# Processed by: cddbd v1.4PL0 Copyright (c) Steve Scherf et al.
# Submitted via: dBpowerAMP V4.0
#
DISCID=9205970c
DTITLE=Nashville Country Cub - Ritmo Country Americano
DYEAR=1900
DGENRE=Country
TTITLE0=I'm rollin'on
TTITLE1=Cripple creek
TTITLE2=Blue ridge mountain blues
TTITLE3=Green corn, green corn
TTITLE4=Down in the Arkansas
TTITLE5=All the good times
TTITLE6=Lil' Liza Jane
TTITLE7=Mountain dew
TTITLE8=Franklin D Roosevelt's back again
TTITLE9=Handsome molly
TTITLE10=Death of the blue eagle
TTITLE11=Mama don't low
EXTD=
EXTT0=
EXTT1=
EXTT2=
EXTT3=
EXTT4=
EXTT5=
EXTT6=
EXTT7=
EXTT8=
EXTT9=
EXTT10=
EXTT11=
PLAYORDER=
